 <svg class="icon" viewBox="0 0 1024 1024" version="1.1" xmlns="http://www.w3.org/2000/svg" p-id="6634" height="128" width="128"><path d="M243.47623678 327.38991279h537.04752644v369.22017442H243.47623678z" fill="#F1361D" p-id="6635"></path><path d="M547.57939863 462.99441322l-14.43315228 17.11838991 0.67130941-22.48886519-20.81059164-8.39136759 21.48190105-6.37743938 1.67827352-22.48886519 12.75487876 18.79666344 21.81755575-5.37047525-13.76184287 17.78969931 11.74791465 19.13231813-21.14624635-7.72005819zM491.86071776 399.22001945l-22.15321047 3.35654705 15.44011639-16.44708052-10.06964113-20.13928224 20.47493695 9.39833172 16.1114258-15.7757711-2.68523763 22.48886517 20.13928224 10.40529584-22.15321048 4.36351114-3.69220175 22.15321047-11.41225992-19.80362753z m9.06267701 205.42067887l-13.76184288 17.7896993v-22.48886517l-21.14624633-7.72005819 21.48190104-7.04874877 1.00696412-22.48886518 13.42618817 18.12535402 21.81755576-6.04178467-13.76184287 17.78969931 12.41922404 18.79666342-21.48190105-6.71309407zM542.20892337 541.87326866l-20.47493696 9.39833172 10.06964113-20.13928225-15.44011639-16.4470805 22.15321046 3.35654705 11.07660525-19.80362754 3.69220174 22.15321046 22.15321046 4.36351115L555.63511152 535.49582928l2.68523763 22.48886516-16.11142578-16.11142578z m-155.40812797-16.1114258L330.74645982 566.04040736l20.81059165-65.78832201-55.71868086-41.28552859 69.14486903-0.67130941 21.81755576-65.45266728L408.95400586 458.29524735l69.14486902 0.6713094-55.71868085 40.9498739L443.19078568 565.70475265 386.8007954 525.76184286z" fill="#FFDC42" p-id="6636"></path></svg>