<svg t="1553213286736" class="icon" viewBox="0 0 1024 1024" version="1.1" xmlns="http://www.w3.org/2000/svg" p-id="20236" height="32" width="32"><path d="M983.729909 1024H40.104891A17.750659 17.750659 0 0 1 22.354232 1006.249341V644.84593a17.750659 17.750659 0 0 1 17.750659-17.750659h313.547636a17.750659 17.750659 0 0 1 17.750658 17.750659v82.789072h262.425739V644.84593a17.750659 17.750659 0 0 1 17.040632-17.750659H983.729909a17.750659 17.750659 0 0 1 17.750658 17.750659v361.403411a17.750659 17.750659 0 0 1-17.750658 17.750659zM57.85555 988.498683h908.833726v-326.612121H668.620215v82.789072a17.750659 17.750659 0 0 1-17.750659 17.750659H353.652527a17.750659 17.750659 0 0 1-18.03467-17.040632v-82.789072H57.85555zM777.396252 509.230897H246.580553a17.750659 17.750659 0 0 1 0-35.501317h530.815699a17.750659 17.750659 0 0 1 0 35.501317zM734.652665 349.332964H289.32414a17.750659 17.750659 0 0 1 0-35.501318h445.328525a17.750659 17.750659 0 0 1 0 35.501318zM700.429395 189.577035H323.54741a17.750659 17.750659 0 0 1 0-35.501317h376.881985a17.750659 17.750659 0 1 1 0 35.501317z" p-id="20237"></path><path d="M983.729909 662.596589a17.750659 17.750659 0 0 1-17.324643-14.200527L826.814085 35.643323H184.382245L57.571539 648.396062a17.750659 17.750659 0 0 1-34.365275-7.100264L152.999081 14.200527a17.750659 17.750659 0 0 1 17.324643-14.200527h670.690888a17.750659 17.750659 0 0 1 17.324643 14.200527l142.715296 626.669255a17.750659 17.750659 0 0 1-13.348495 21.300791 17.466648 17.466648 0 0 1-3.976147 0.426016z" p-id="20238"></path></svg>